<svg xmlns="http://www.w3.org/2000/svg" viewBox="0 0 512 512">
  <defs><linearGradient id="g" x1="0" x2="1" y1="0" y2="1"><stop stop-color="#2563eb"/><stop offset="1" stop-color="#14b8a6"/></linearGradient></defs>
  <rect width="512" height="512" rx="112" fill="url(#g)"/>
  <path d="M130 294h252l-22-72c-9-29-35-50-66-50h-76c-31 0-58 21-66 50l-22 72z" fill="#fff" opacity=".95"/>
  <path d="M105 290h302c19 0 35 16 35 35v57c0 13-10 23-23 23h-18c-13 0-23-10-23-23v-3H134v3c0 13-10 23-23 23H93c-13 0-23-10-23-23v-57c0-19 16-35 35-35z" fill="#fff"/>
  <circle cx="146" cy="343" r="26" fill="#172033"/>
  <circle cx="366" cy="343" r="26" fill="#172033"/>
  <path d="M199 209h114c15 0 28 10 33 25l12 40H154l12-40c5-15 18-25 33-25z" fill="#bfdbfe"/>
</svg>
